# xmcd
#
# Track frame offsets:
#	180
#	12276
#	25019
#	38246
#	54215
#	65764
#	78333
#	91029
#	112980
#	123392
#	134542
#	148041
#	165423
#	177456
#	188911
#	201241
#
# Disc length: 2889
#
# Revision: 1
# Processed by: cddbd v1.5.1PL0 Copyright (c) Steve Scherf et al.
# Submitted via: ExactAudioCopy v0.95a4
# Normalized: r0:TDELIM( - )
#
DISCID=d40b4710
DTITLE=Various Artist - Ritme Klaar - Blues
DYEAR=1994
DGENRE=Blues
TTITLE0=John Lee Hooker - I'm in the mood
TTITLE1=Muddy Waters - 40 days and 40 nights
TTITLE2=Elmore James - Dust my broom
TTITLE3=B.B. King - It's my own fault baby
TTITLE4=John Lee Hooker - Little Wheel
TTITLE5=Muddy Waters - Mean mistreater
TTITLE6=Elmore James - The sky is crying
TTITLE7=B.B. King - The thrill is gone
TTITLE8=John Lee Hooker - Maudie
TTITLE9=Muddy Waters - I can't call her sugar
TTITLE10=Elmore James - Crossroads
TTITLE11=B.B. King - Evel child
TTITLE12=John Lee Hooker - Crawling king snake
TTITLE13=Muddy Waters - Going home
TTITLE14=Elmore James - Mean mistreatin' mama
TTITLE15=B.B. King - The Letter
EXTD=
EXTT0=
EXTT1=
EXTT2=
EXTT3=
EXTT4=
EXTT5=
EXTT6=
EXTT7=
EXTT8=
EXTT9=
EXTT10=
EXTT11=
EXTT12=
EXTT13=
EXTT14=
EXTT15=
PLAYORDER=
